# This file uses centimeters as units for non-parametric coordinates.

mtllib box.mtl
g default
v -6.000000 0.000000 0.500000
v -5.000000 0.000000 0.500000
v 5.000000 0.000000 0.500000
v 6.000000 0.000000 0.500000
v -6.000000 1.000000 0.500000
v -5.000000 1.000000 0.500000
v 5.000000 1.000000 0.500000
v 6.000000 1.000000 0.500000
v -6.000000 1.000000 -0.500000
v -5.000000 1.000000 -0.500000
v 5.000000 1.000000 -0.500000
v 6.000000 1.000000 -0.500000
v -6.000000 0.000000 -0.500000
v -5.000000 0.000000 -0.500000
v 5.000000 0.000000 -0.500000
v 6.000000 0.000000 -0.500000
v -6.000000 6.000000 0.500000
v -6.000000 7.000000 0.500000
v -5.000000 6.000000 0.500000
v -5.000000 7.000000 0.500000
v -5.000000 6.000000 -0.500000
v -5.000000 7.000000 -0.500000
v -6.000000 6.000000 -0.500000
v -6.000000 7.000000 -0.500000
v 5.000000 6.000000 0.500000
v 5.000000 7.000000 0.500000
v 6.000000 6.000000 0.500000
v 6.000000 7.000000 0.500000
v 6.000000 6.000000 -0.500000
v 6.000000 7.000000 -0.500000
v 5.000000 6.000000 -0.500000
v 5.000000 7.000000 -0.500000
vt 0.375000 0.000000
vt 0.395833 0.000000
vt 0.604167 0.000000
vt 0.625000 0.000000
vt 0.375000 0.250000
vt 0.395833 0.250000
vt 0.604167 0.250000
vt 0.625000 0.250000
vt 0.375000 0.500000
vt 0.395833 0.500000
vt 0.604167 0.500000
vt 0.625000 0.500000
vt 0.375000 0.750000
vt 0.395833 0.750000
vt 0.604167 0.750000
vt 0.625000 0.750000
vt 0.375000 1.000000
vt 0.395833 1.000000
vt 0.604167 1.000000
vt 0.625000 1.000000
vt 0.875000 0.000000
vt 0.875000 0.250000
vt 0.125000 0.000000
vt 0.125000 0.250000
vt 0.375000 0.250000
vt 0.375000 0.250000
vt 0.395833 0.250000
vt 0.395833 0.250000
vt 0.395833 0.500000
vt 0.395833 0.500000
vt 0.375000 0.500000
vt 0.375000 0.500000
vt 0.604167 0.250000
vt 0.604167 0.250000
vt 0.625000 0.250000
vt 0.625000 0.250000
vt 0.625000 0.500000
vt 0.625000 0.500000
vt 0.604167 0.500000
vt 0.604167 0.500000
vn 0.000000 0.000000 1.000000
vn 0.000000 0.000000 1.000000
vn 0.000000 0.000000 1.000000
vn 0.000000 0.000000 1.000000
vn 0.000000 0.000000 1.000000
vn 0.000000 0.000000 1.000000
vn 0.000000 0.000000 1.000000
vn 0.000000 0.000000 1.000000
vn 0.000000 1.000000 0.000000
vn 0.000000 1.000000 0.000000
vn 0.000000 1.000000 0.000000
vn 0.000000 1.000000 0.000000
vn 0.000000 1.000000 0.000000
vn 0.000000 1.000000 0.000000
vn 0.000000 1.000000 0.000000
vn 0.000000 1.000000 0.000000
vn 0.000000 1.000000 0.000000
vn 0.000000 1.000000 0.000000
vn 0.000000 1.000000 0.000000
vn 0.000000 1.000000 0.000000
vn 0.000000 0.000000 -1.000000
vn 0.000000 0.000000 -1.000000
vn 0.000000 0.000000 -1.000000
vn 0.000000 0.000000 -1.000000
vn 0.000000 0.000000 -1.000000
vn 0.000000 0.000000 -1.000000
vn 0.000000 0.000000 -1.000000
vn 0.000000 0.000000 -1.000000
vn 0.000000 -1.000000 0.000000
vn 0.000000 -1.000000 0.000000
vn 0.000000 -1.000000 0.000000
vn 0.000000 -1.000000 0.000000
vn 0.000000 -1.000000 0.000000
vn 0.000000 -1.000000 0.000000
vn 0.000000 -1.000000 0.000000
vn 0.000000 -1.000000 0.000000
vn 1.000000 0.000000 0.000000
vn 1.000000 0.000000 0.000000
vn 1.000000 0.000000 0.000000
vn 1.000000 0.000000 0.000000
vn -1.000000 0.000000 0.000000
vn -1.000000 0.000000 0.000000
vn -1.000000 0.000000 0.000000
vn -1.000000 0.000000 0.000000
vn 0.000000 0.000000 1.000000
vn 0.000000 0.000000 1.000000
vn 0.000000 0.000000 1.000000
vn 0.000000 0.000000 1.000000
vn 1.000000 0.000000 0.000000
vn 1.000000 0.000000 0.000000
vn 1.000000 0.000000 0.000000
vn 1.000000 0.000000 0.000000
vn 0.000000 0.000000 -1.000000
vn 0.000000 0.000000 -1.000000
vn 0.000000 0.000000 -1.000000
vn 0.000000 0.000000 -1.000000
vn -1.000000 0.000000 0.000000
vn -1.000000 0.000000 0.000000
vn -1.000000 0.000000 0.000000
vn -1.000000 0.000000 0.000000
vn 0.000000 0.000000 1.000000
vn 0.000000 0.000000 1.000000
vn 0.000000 0.000000 1.000000
vn 0.000000 0.000000 1.000000
vn 1.000000 0.000000 0.000000
vn 1.000000 0.000000 0.000000
vn 1.000000 0.000000 0.000000
vn 1.000000 0.000000 0.000000
vn 0.000000 0.000000 -1.000000
vn 0.000000 0.000000 -1.000000
vn 0.000000 0.000000 -1.000000
vn 0.000000 0.000000 -1.000000
vn -1.000000 0.000000 0.000000
vn -1.000000 0.000000 0.000000
vn -1.000000 0.000000 0.000000
vn -1.000000 0.000000 0.000000
vn 0.000000 0.000000 1.000000
vn 0.000000 0.000000 1.000000
vn 0.000000 0.000000 1.000000
vn 0.000000 0.000000 1.000000
vn 0.000000 -1.000000 0.000000
vn 0.000000 -1.000000 0.000000
vn 0.000000 -1.000000 0.000000
vn 0.000000 -1.000000 0.000000
vn 0.000000 0.000000 -1.000000
vn 0.000000 0.000000 -1.000000
vn 0.000000 0.000000 -1.000000
vn 0.000000 0.000000 -1.000000
vn 0.000000 1.000000 0.000000
vn 0.000000 1.000000 0.000000
vn 0.000000 1.000000 0.000000
vn 0.000000 1.000000 0.000000
s 1
g pCube1
usemtl initialShadingGroup
f 1/1/1 2/2/2 6/6/3 5/5/4
f 6/6/3 2/2/2 3/3/5 7/7/6
f 3/3/5 4/4/7 8/8/8 7/7/6
s off
f 18/26/9 20/28/10 22/30/11 24/32/12
f 10/10/13 6/6/14 7/7/15 11/11/16
f 26/34/17 28/36/18 30/38/19 32/40/20
s 2
f 9/9/21 10/10/22 14/14/23 13/13/24
f 14/14/23 10/10/22 11/11/25 15/15/26
f 11/11/25 12/12/27 16/16/28 15/15/26
s 3
f 13/13/29 14/14/30 2/18/31 1/17/32
f 3/19/33 2/18/31 14/14/30 15/15/34
f 15/15/34 16/16/35 4/20/36 3/19/33
s 4
f 4/4/37 16/21/38 12/22/39 8/8/40
s 5
f 13/23/41 1/1/42 5/5/43 9/24/44
s 1
f 19/27/45 17/25/46 5/5/4 6/6/3
f 17/25/46 19/27/45 20/28/47 18/26/48
s off
f 21/29/49 19/27/50 6/6/51 10/10/52
s 2
f 21/29/53 10/10/22 9/9/21 23/31/54
f 21/29/53 23/31/54 24/32/55 22/30/56
s 5
f 23/31/57 9/9/44 5/5/43 17/25/58
f 23/31/57 17/25/58 18/26/59 24/32/60
s 1
f 27/35/61 25/33/62 7/7/6 8/8/8
f 25/33/62 27/35/61 28/36/63 26/34/64
s 4
f 29/37/65 27/35/66 8/8/40 12/12/39
f 27/35/66 29/37/65 30/38/67 28/36/68
s 2
f 29/37/69 12/12/27 11/11/25 31/39/70
f 29/37/69 31/39/70 32/40/71 30/38/72
s off
f 31/39/73 11/11/74 7/7/75 25/33/76
f 20/28/77 19/27/78 25/33/79 26/34/80
f 19/27/81 21/29/82 31/39/83 25/33/84
f 21/29/85 22/30/86 32/40/87 31/39/88
f 22/30/89 20/28/90 26/34/91 32/40/92
g default
v -6.000000 0.000000 0.500000
v -5.000000 0.000000 0.500000
v 5.000000 0.000000 0.500000
v 6.000000 0.000000 0.500000
v -6.000000 1.000000 0.500000
v -5.000000 1.000000 0.500000
v 5.000000 1.000000 0.500000
v 6.000000 1.000000 0.500000
v -6.000000 1.000000 -0.500000
v -5.000000 1.000000 -0.500000
v 5.000000 1.000000 -0.500000
v 6.000000 1.000000 -0.500000
v -6.000000 0.000000 -0.500000
v -5.000000 0.000000 -0.500000
v 5.000000 0.000000 -0.500000
v 6.000000 0.000000 -0.500000
v -6.000000 6.000000 0.500000
v -6.000000 7.000000 0.500000
v -5.000000 6.000000 0.500000
v -5.000000 7.000000 0.500000
v -5.000000 6.000000 -0.500000
v -5.000000 7.000000 -0.500000
v -6.000000 6.000000 -0.500000
v -6.000000 7.000000 -0.500000
v 5.000000 6.000000 0.500000
v 5.000000 7.000000 0.500000
v 6.000000 6.000000 0.500000
v 6.000000 7.000000 0.500000
v 6.000000 6.000000 -0.500000
v 6.000000 7.000000 -0.500000
v 5.000000 6.000000 -0.500000
v 5.000000 7.000000 -0.500000
vt 0.375000 0.000000
vt 0.395833 0.000000
vt 0.604167 0.000000
vt 0.625000 0.000000
vt 0.375000 0.250000
vt 0.395833 0.250000
vt 0.604167 0.250000
vt 0.625000 0.250000
vt 0.375000 0.500000
vt 0.395833 0.500000
vt 0.604167 0.500000
vt 0.625000 0.500000
vt 0.375000 0.750000
vt 0.395833 0.750000
vt 0.604167 0.750000
vt 0.625000 0.750000
vt 0.375000 1.000000
vt 0.395833 1.000000
vt 0.604167 1.000000
vt 0.625000 1.000000
vt 0.875000 0.000000
vt 0.875000 0.250000
vt 0.125000 0.000000
vt 0.125000 0.250000
vt 0.375000 0.250000
vt 0.375000 0.250000
vt 0.395833 0.250000
vt 0.395833 0.250000
vt 0.395833 0.500000
vt 0.395833 0.500000
vt 0.375000 0.500000
vt 0.375000 0.500000
vt 0.604167 0.250000
vt 0.604167 0.250000
vt 0.625000 0.250000
vt 0.625000 0.250000
vt 0.625000 0.500000
vt 0.625000 0.500000
vt 0.604167 0.500000
vt 0.604167 0.500000
vn 0.000000 0.000000 1.000000
vn 0.000000 0.000000 1.000000
vn 0.000000 0.000000 1.000000
vn 0.000000 0.000000 1.000000
vn 0.000000 0.000000 1.000000
vn 0.000000 0.000000 1.000000
vn 0.000000 0.000000 1.000000
vn 0.000000 0.000000 1.000000
vn 0.000000 1.000000 0.000000
vn 0.000000 1.000000 0.000000
vn 0.000000 1.000000 0.000000
vn 0.000000 1.000000 0.000000
vn 0.000000 1.000000 0.000000
vn 0.000000 1.000000 0.000000
vn 0.000000 1.000000 0.000000
vn 0.000000 1.000000 0.000000
vn 0.000000 1.000000 0.000000
vn 0.000000 1.000000 0.000000
vn 0.000000 1.000000 0.000000
vn 0.000000 1.000000 0.000000
vn 0.000000 0.000000 -1.000000
vn 0.000000 0.000000 -1.000000
vn 0.000000 0.000000 -1.000000
vn 0.000000 0.000000 -1.000000
vn 0.000000 0.000000 -1.000000
vn 0.000000 0.000000 -1.000000
vn 0.000000 0.000000 -1.000000
vn 0.000000 0.000000 -1.000000
vn 0.000000 -1.000000 0.000000
vn 0.000000 -1.000000 0.000000
vn 0.000000 -1.000000 0.000000
vn 0.000000 -1.000000 0.000000
vn 0.000000 -1.000000 0.000000
vn 0.000000 -1.000000 0.000000
vn 0.000000 -1.000000 0.000000
vn 0.000000 -1.000000 0.000000
vn 1.000000 0.000000 0.000000
vn 1.000000 0.000000 0.000000
vn 1.000000 0.000000 0.000000
vn 1.000000 0.000000 0.000000
vn -1.000000 0.000000 0.000000
vn -1.000000 0.000000 0.000000
vn -1.000000 0.000000 0.000000
vn -1.000000 0.000000 0.000000
vn 0.000000 0.000000 1.000000
vn 0.000000 0.000000 1.000000
vn 0.000000 0.000000 1.000000
vn 0.000000 0.000000 1.000000
vn 1.000000 0.000000 0.000000
vn 1.000000 0.000000 0.000000
vn 1.000000 0.000000 0.000000
vn 1.000000 0.000000 0.000000
vn 0.000000 0.000000 -1.000000
vn 0.000000 0.000000 -1.000000
vn 0.000000 0.000000 -1.000000
vn 0.000000 0.000000 -1.000000
vn -1.000000 0.000000 0.000000
vn -1.000000 0.000000 0.000000
vn -1.000000 0.000000 0.000000
vn -1.000000 0.000000 0.000000
vn 0.000000 0.000000 1.000000
vn 0.000000 0.000000 1.000000
vn 0.000000 0.000000 1.000000
vn 0.000000 0.000000 1.000000
vn 1.000000 0.000000 0.000000
vn 1.000000 0.000000 0.000000
vn 1.000000 0.000000 0.000000
vn 1.000000 0.000000 0.000000
vn 0.000000 0.000000 -1.000000
vn 0.000000 0.000000 -1.000000
vn 0.000000 0.000000 -1.000000
vn 0.000000 0.000000 -1.000000
vn -1.000000 0.000000 0.000000
vn -1.000000 0.000000 0.000000
vn -1.000000 0.000000 0.000000
vn -1.000000 0.000000 0.000000
vn 0.000000 0.000000 1.000000
vn 0.000000 0.000000 1.000000
vn 0.000000 0.000000 1.000000
vn 0.000000 0.000000 1.000000
vn 0.000000 -1.000000 0.000000
vn 0.000000 -1.000000 0.000000
vn 0.000000 -1.000000 0.000000
vn 0.000000 -1.000000 0.000000
vn 0.000000 0.000000 -1.000000
vn 0.000000 0.000000 -1.000000
vn 0.000000 0.000000 -1.000000
vn 0.000000 0.000000 -1.000000
vn 0.000000 1.000000 0.000000
vn 0.000000 1.000000 0.000000
vn 0.000000 1.000000 0.000000
vn 0.000000 1.000000 0.000000
s 1
g pCube1
f 33/41/93 34/42/94 38/46/95 37/45/96
f 38/46/95 34/42/94 35/43/97 39/47/98
f 35/43/97 36/44/99 40/48/100 39/47/98
s off
f 50/66/101 52/68/102 54/70/103 56/72/104
f 42/50/105 38/46/106 39/47/107 43/51/108
f 58/74/109 60/76/110 62/78/111 64/80/112
s 2
f 41/49/113 42/50/114 46/54/115 45/53/116
f 46/54/115 42/50/114 43/51/117 47/55/118
f 43/51/117 44/52/119 48/56/120 47/55/118
s 3
f 45/53/121 46/54/122 34/58/123 33/57/124
f 35/59/125 34/58/123 46/54/122 47/55/126
f 47/55/126 48/56/127 36/60/128 35/59/125
s 4
f 36/44/129 48/61/130 44/62/131 40/48/132
s 5
f 45/63/133 33/41/134 37/45/135 41/64/136
s 1
f 51/67/137 49/65/138 37/45/96 38/46/95
f 49/65/138 51/67/137 52/68/139 50/66/140
s off
f 53/69/141 51/67/142 38/46/143 42/50/144
s 2
f 53/69/145 42/50/114 41/49/113 55/71/146
f 53/69/145 55/71/146 56/72/147 54/70/148
s 5
f 55/71/149 41/49/136 37/45/135 49/65/150
f 55/71/149 49/65/150 50/66/151 56/72/152
s 1
f 59/75/153 57/73/154 39/47/98 40/48/100
f 57/73/154 59/75/153 60/76/155 58/74/156
s 4
f 61/77/157 59/75/158 40/48/132 44/52/131
f 59/75/158 61/77/157 62/78/159 60/76/160
s 2
f 61/77/161 44/52/119 43/51/117 63/79/162
f 61/77/161 63/79/162 64/80/163 62/78/164
s off
f 63/79/165 43/51/166 39/47/167 57/73/168
f 52/68/169 51/67/170 57/73/171 58/74/172
f 51/67/173 53/69/174 63/79/175 57/73/176
f 53/69/177 54/70/178 64/80/179 63/79/180
f 54/70/181 52/68/182 58/74/183 64/80/184
