# Blender v2.80 (sub 42) OBJ File: ''
# www.blender.org
mtllib box_tunnel.mtl
o Cylinder
v 0.707107 -0.707107 1.000000
v 0.707107 -0.707107 -0.000000
v 0.707107 0.707107 1.000000
v 0.707107 0.707107 0.000000
v -0.707107 0.707107 1.000000
v -0.707107 0.707107 0.000000
v -0.707107 -0.707107 1.000000
v -0.707107 -0.707107 -0.000000
vt 1.000000 0.000000
vt 0.750000 0.000000
vt 0.750000 1.000000
vt 1.000000 1.000000
vt 0.500000 0.000000
vt 0.500000 1.000000
vt 0.250000 0.000000
vt 0.250000 1.000000
vt 0.000000 0.000000
vt 0.000000 1.000000
vn -1.0000 -0.0000 0.0000
vn 0.0000 -1.0000 0.0000
vn 1.0000 0.0000 0.0000
vn 0.0000 1.0000 0.0000
usemtl None
s off
f 1/1/1 3/2/1 4/3/1 2/4/1
f 3/2/2 5/5/2 6/6/2 4/3/2
f 5/5/3 7/7/3 8/8/3 6/6/3
f 7/7/4 1/9/4 2/10/4 8/8/4
